<?xml version="1.0" encoding="UTF-8" standalone="no"?>
<!DOCTYPE svg PUBLIC "-//W3C//DTD SVG 1.1//EN"
 "http://www.w3.org/Graphics/SVG/1.1/DTD/svg11.dtd">
<!-- Generated by graphviz version 2.40.1 (20161225.0304)
 -->
<!-- Title: %3 Pages: 1 -->
<svg width="898pt" height="488pt"
 viewBox="0.00 0.00 898.00 488.00" xmlns="http://www.w3.org/2000/svg" xmlns:xlink="http://www.w3.org/1999/xlink">
<g id="graph0" class="graph" transform="scale(1 1) rotate(0) translate(4 484)">
<title>%3</title>
<polygon fill="#ffffff" stroke="transparent" points="-4,4 -4,-484 894,-484 894,4 -4,4"/>
<!-- 2 -->
<g id="node1" class="node">
<title>2</title>
<polygon fill="#ff0000" stroke="#ff0000" points="733,-52 655,-52 655,0 733,0 733,-52"/>
<text text-anchor="middle" x="694" y="-40" font-family="Arial" font-size="10.00" fill="#ffffff">read_from_file</text>
<text text-anchor="middle" x="694" y="-29" font-family="Arial" font-size="10.00" fill="#ffffff">100.00%</text>
<text text-anchor="middle" x="694" y="-18" font-family="Arial" font-size="10.00" fill="#ffffff">(100.00%)</text>
<text text-anchor="middle" x="694" y="-7" font-family="Arial" font-size="10.00" fill="#ffffff">458×</text>
</g>
<!-- 3 -->
<g id="node2" class="node">
<title>3</title>
<polygon fill="#ff0000" stroke="#ff0000" points="724.5,-144 663.5,-144 663.5,-92 724.5,-92 724.5,-144"/>
<text text-anchor="middle" x="694" y="-132" font-family="Arial" font-size="10.00" fill="#ffffff">read_next</text>
<text text-anchor="middle" x="694" y="-121" font-family="Arial" font-size="10.00" fill="#ffffff">100.00%</text>
<text text-anchor="middle" x="694" y="-110" font-family="Arial" font-size="10.00" fill="#ffffff">(100.00%)</text>
<text text-anchor="middle" x="694" y="-99" font-family="Arial" font-size="10.00" fill="#ffffff">332×</text>
</g>
<!-- 3&#45;&gt;2 -->
<g id="edge1" class="edge">
<title>3&#45;&gt;2</title>
<path fill="none" stroke="#ff0000" stroke-width="4" d="M694,-91.8826C694,-82.6565 694,-72.1091 694,-62.1983"/>
<polygon fill="#ff0000" stroke="#ff0000" stroke-width="4" points="697.5001,-62.1827 694,-52.1827 690.5001,-62.1828 697.5001,-62.1827"/>
<text text-anchor="middle" x="713.5" y="-75" font-family="Arial" font-size="10.00" fill="#ff0000">100.00%</text>
<text text-anchor="middle" x="713.5" y="-64" font-family="Arial" font-size="10.00" fill="#ff0000">458×</text>
</g>
<!-- 4 -->
<g id="node3" class="node">
<title>4</title>
<polygon fill="#ff0000" stroke="#ff0000" points="237.5,-52 156.5,-52 156.5,0 237.5,0 237.5,-52"/>
<text text-anchor="middle" x="197" y="-40" font-family="Arial" font-size="10.00" fill="#ffffff">push_to_buffer</text>
<text text-anchor="middle" x="197" y="-29" font-family="Arial" font-size="10.00" fill="#ffffff">100.00%</text>
<text text-anchor="middle" x="197" y="-18" font-family="Arial" font-size="10.00" fill="#ffffff">(100.00%)</text>
<text text-anchor="middle" x="197" y="-7" font-family="Arial" font-size="10.00" fill="#ffffff">232×</text>
</g>
<!-- 5 -->
<g id="node4" class="node">
<title>5</title>
<polygon fill="#ff0000" stroke="#ff0000" points="369,-144 299,-144 299,-92 369,-92 369,-144"/>
<text text-anchor="middle" x="334" y="-132" font-family="Arial" font-size="10.00" fill="#ffffff">parse_string</text>
<text text-anchor="middle" x="334" y="-121" font-family="Arial" font-size="10.00" fill="#ffffff">100.00%</text>
<text text-anchor="middle" x="334" y="-110" font-family="Arial" font-size="10.00" fill="#ffffff">(100.00%)</text>
<text text-anchor="middle" x="334" y="-99" font-family="Arial" font-size="10.00" fill="#ffffff">228×</text>
</g>
<!-- 5&#45;&gt;4 -->
<g id="edge2" class="edge">
<title>5&#45;&gt;4</title>
<path fill="none" stroke="#ff0000" stroke-width="4" d="M315.9973,-91.9519C307.5706,-81.2456 296.7923,-69.4121 285,-61 273.6938,-52.9346 260.268,-46.3812 247.3523,-41.22"/>
<polygon fill="#ff0000" stroke="#ff0000" stroke-width="4" points="248.2103,-37.8027 237.6186,-37.5427 245.7363,-44.351 248.2103,-37.8027"/>
<text text-anchor="middle" x="327.5" y="-75" font-family="Arial" font-size="10.00" fill="#ff0000">100.00%</text>
<text text-anchor="middle" x="327.5" y="-64" font-family="Arial" font-size="10.00" fill="#ff0000">209×</text>
</g>
<!-- 6 -->
<g id="node5" class="node">
<title>6</title>
<polygon fill="#ff0000" stroke="#ff0000" points="528.5,-144 467.5,-144 467.5,-92 528.5,-92 528.5,-144"/>
<text text-anchor="middle" x="498" y="-132" font-family="Arial" font-size="10.00" fill="#ffffff">on_object</text>
<text text-anchor="middle" x="498" y="-121" font-family="Arial" font-size="10.00" fill="#ffffff">100.00%</text>
<text text-anchor="middle" x="498" y="-110" font-family="Arial" font-size="10.00" fill="#ffffff">(100.00%)</text>
<text text-anchor="middle" x="498" y="-99" font-family="Arial" font-size="10.00" fill="#ffffff">118×</text>
</g>
<!-- 7 -->
<g id="node6" class="node">
<title>7</title>
<polygon fill="#ff0000" stroke="#ff0000" points="263.5,-144 166.5,-144 166.5,-92 263.5,-92 263.5,-144"/>
<text text-anchor="middle" x="215" y="-132" font-family="Arial" font-size="10.00" fill="#ffffff">flush_string_buffer</text>
<text text-anchor="middle" x="215" y="-121" font-family="Arial" font-size="10.00" fill="#ffffff">100.00%</text>
<text text-anchor="middle" x="215" y="-110" font-family="Arial" font-size="10.00" fill="#ffffff">(100.00%)</text>
<text text-anchor="middle" x="215" y="-99" font-family="Arial" font-size="10.00" fill="#ffffff">62×</text>
</g>
<!-- 8 -->
<g id="node7" class="node">
<title>8</title>
<polygon fill="#ff0000" stroke="#ff0000" points="436.5,-480 367.5,-480 367.5,-428 436.5,-428 436.5,-480"/>
<text text-anchor="middle" x="402" y="-468" font-family="Arial" font-size="10.00" fill="#ffffff">parse_value</text>
<text text-anchor="middle" x="402" y="-457" font-family="Arial" font-size="10.00" fill="#ffffff">100.00%</text>
<text text-anchor="middle" x="402" y="-446" font-family="Arial" font-size="10.00" fill="#ffffff">(100.00%)</text>
<text text-anchor="middle" x="402" y="-435" font-family="Arial" font-size="10.00" fill="#ffffff">24×</text>
</g>
<!-- 8&#45;&gt;3 -->
<g id="edge3" class="edge">
<title>8&#45;&gt;3</title>
<path fill="none" stroke="#ff0000" stroke-width="4" d="M436.7757,-453.4149C499.5603,-451.7111 628.6138,-445.0486 664,-419 741.6509,-361.8395 754.3275,-308.4639 735,-214 730.7395,-193.1765 721.7775,-171.2839 713.316,-153.6724"/>
<polygon fill="#ff0000" stroke="#ff0000" stroke-width="4" points="716.2778,-151.7668 708.6997,-144.3626 710.0065,-154.8765 716.2778,-151.7668"/>
<text text-anchor="middle" x="762.5" y="-304" font-family="Arial" font-size="10.00" fill="#ff0000">100.00%</text>
<text text-anchor="middle" x="762.5" y="-293" font-family="Arial" font-size="10.00" fill="#ff0000">129×</text>
</g>
<!-- 8&#45;&gt;5 -->
<g id="edge4" class="edge">
<title>8&#45;&gt;5</title>
<path fill="none" stroke="#ff0000" stroke-width="4" d="M389.1638,-427.9605C377.3792,-402.7793 360.499,-363.2187 352,-327 338.0405,-267.5116 334.6472,-196.2255 333.9663,-154.1589"/>
<polygon fill="#ff0000" stroke="#ff0000" stroke-width="4" points="337.4656,-154.0761 333.8468,-144.1185 330.4661,-154.1595 337.4656,-154.0761"/>
<text text-anchor="middle" x="371.5" y="-304" font-family="Arial" font-size="10.00" fill="#ff0000">100.00%</text>
<text text-anchor="middle" x="371.5" y="-293" font-family="Arial" font-size="10.00" fill="#ff0000">74×</text>
</g>
<!-- 8&#45;&gt;6 -->
<g id="edge5" class="edge">
<title>8&#45;&gt;6</title>
<path fill="none" stroke="#ff0000" stroke-width="4" d="M399.0961,-427.5815C392.498,-362.3909 379.2887,-196.0349 411,-153 421.9798,-138.0994 440.3655,-129.5307 457.4138,-124.6086"/>
<polygon fill="#ff0000" stroke="#ff0000" stroke-width="4" points="458.4023,-127.9687 467.231,-122.1116 456.6768,-121.1847 458.4023,-127.9687"/>
<text text-anchor="middle" x="410.5" y="-304" font-family="Arial" font-size="10.00" fill="#ff0000">100.00%</text>
<text text-anchor="middle" x="410.5" y="-293" font-family="Arial" font-size="10.00" fill="#ff0000">48×</text>
</g>
<!-- 8&#45;&gt;7 -->
<g id="edge6" class="edge">
<title>8&#45;&gt;7</title>
<path fill="none" stroke="#ff0000" stroke-width="4" d="M367.0742,-447.1974C313.3066,-434.5267 212.8229,-401.5214 178,-327 163.9236,-296.8762 188.0813,-205.359 203.5618,-153.9782"/>
<polygon fill="#ff0000" stroke="#ff0000" stroke-width="4" points="206.9541,-154.8535 206.5284,-144.2672 200.2595,-152.8084 206.9541,-154.8535"/>
<text text-anchor="middle" x="197.5" y="-304" font-family="Arial" font-size="10.00" fill="#ff0000">100.00%</text>
<text text-anchor="middle" x="197.5" y="-293" font-family="Arial" font-size="10.00" fill="#ff0000">24×</text>
</g>
<!-- 9 -->
<g id="node8" class="node">
<title>9</title>
<polygon fill="#ff0000" stroke="#ff0000" points="170,-266 78,-266 78,-214 170,-214 170,-266"/>
<text text-anchor="middle" x="124" y="-254" font-family="Arial" font-size="10.00" fill="#ffffff">value_recognition</text>
<text text-anchor="middle" x="124" y="-243" font-family="Arial" font-size="10.00" fill="#ffffff">100.00%</text>
<text text-anchor="middle" x="124" y="-232" font-family="Arial" font-size="10.00" fill="#ffffff">(100.00%)</text>
<text text-anchor="middle" x="124" y="-221" font-family="Arial" font-size="10.00" fill="#ffffff">24×</text>
</g>
<!-- 8&#45;&gt;9 -->
<g id="edge7" class="edge">
<title>8&#45;&gt;9</title>
<path fill="none" stroke="#ff0000" stroke-width="4" d="M367.2383,-450.9727C311.4655,-445.7469 204.7324,-434.1235 170,-419 149.699,-410.1604 141.0915,-407.7087 131,-388 113.1994,-353.2353 114.0517,-307.6459 117.6924,-276.3017"/>
<polygon fill="#ff0000" stroke="#ff0000" stroke-width="4" points="121.18,-276.6247 119.0111,-266.2543 114.2395,-275.7138 121.18,-276.6247"/>
<text text-anchor="middle" x="150.5" y="-365" font-family="Arial" font-size="10.00" fill="#ff0000">100.00%</text>
<text text-anchor="middle" x="150.5" y="-354" font-family="Arial" font-size="10.00" fill="#ff0000">24×</text>
</g>
<!-- 10 -->
<g id="node9" class="node">
<title>10</title>
<polygon fill="#ff0000" stroke="#ff0000" points="78,-205 0,-205 0,-153 78,-153 78,-205"/>
<text text-anchor="middle" x="39" y="-193" font-family="Arial" font-size="10.00" fill="#ffffff">parse_number</text>
<text text-anchor="middle" x="39" y="-182" font-family="Arial" font-size="10.00" fill="#ffffff">100.00%</text>
<text text-anchor="middle" x="39" y="-171" font-family="Arial" font-size="10.00" fill="#ffffff">(100.00%)</text>
<text text-anchor="middle" x="39" y="-160" font-family="Arial" font-size="10.00" fill="#ffffff">24×</text>
</g>
<!-- 8&#45;&gt;10 -->
<g id="edge8" class="edge">
<title>8&#45;&gt;10</title>
<path fill="none" stroke="#ff0000" stroke-width="4" d="M367.4931,-452.6291C290.7813,-448.7504 110.1577,-434.7384 76,-388 38.6609,-336.9085 34.7677,-260.3117 36.2504,-215.4209"/>
<polygon fill="#ff0000" stroke="#ff0000" stroke-width="4" points="39.7542,-215.4091 36.6962,-205.2652 32.761,-215.1021 39.7542,-215.4091"/>
<text text-anchor="middle" x="95.5" y="-365" font-family="Arial" font-size="10.00" fill="#ff0000">100.00%</text>
<text text-anchor="middle" x="95.5" y="-354" font-family="Arial" font-size="10.00" fill="#ff0000">19×</text>
</g>
<!-- 12 -->
<g id="node10" class="node">
<title>12</title>
<polygon fill="#ff0000" stroke="#ff0000" points="571,-388 499,-388 499,-336 571,-336 571,-388"/>
<text text-anchor="middle" x="535" y="-376" font-family="Arial" font-size="10.00" fill="#ffffff">parse_object</text>
<text text-anchor="middle" x="535" y="-365" font-family="Arial" font-size="10.00" fill="#ffffff">100.00%</text>
<text text-anchor="middle" x="535" y="-354" font-family="Arial" font-size="10.00" fill="#ffffff">(100.00%)</text>
<text text-anchor="middle" x="535" y="-343" font-family="Arial" font-size="10.00" fill="#ffffff">10×</text>
</g>
<!-- 8&#45;&gt;12 -->
<g id="edge9" class="edge">
<title>8&#45;&gt;12</title>
<path fill="none" stroke="#ff0000" stroke-width="4" d="M436.6289,-432.95C443.7628,-428.4483 451.1774,-423.6468 458,-419 469.3926,-411.2407 481.4786,-402.5315 492.6152,-394.3007"/>
<polygon fill="#ff0000" stroke="#ff0000" stroke-width="4" points="494.9847,-396.9003 500.9191,-388.1235 490.8066,-391.2839 494.9847,-396.9003"/>
<text text-anchor="middle" x="494" y="-405.5" font-family="Arial" font-size="10.00" fill="#ff0000">9×</text>
</g>
<!-- 13 -->
<g id="node11" class="node">
<title>13</title>
<polygon fill="#ff0000" stroke="#ff0000" points="668,-327 600,-327 600,-275 668,-275 668,-327"/>
<text text-anchor="middle" x="634" y="-315" font-family="Arial" font-size="10.00" fill="#ffffff">parse_array</text>
<text text-anchor="middle" x="634" y="-304" font-family="Arial" font-size="10.00" fill="#ffffff">100.00%</text>
<text text-anchor="middle" x="634" y="-293" font-family="Arial" font-size="10.00" fill="#ffffff">(100.00%)</text>
<text text-anchor="middle" x="634" y="-282" font-family="Arial" font-size="10.00" fill="#ffffff">4×</text>
</g>
<!-- 8&#45;&gt;13 -->
<g id="edge10" class="edge">
<title>8&#45;&gt;13</title>
<path fill="none" stroke="#ff0000" stroke-width="4" d="M436.5973,-452.7395C488.977,-450.097 584.8709,-442.1531 609,-419 630.7428,-398.1367 635.9412,-363.4447 636.3247,-337.0624"/>
<polygon fill="#ff0000" stroke="#ff0000" stroke-width="4" points="639.8246,-337.0209 636.2503,-327.0472 632.8248,-337.0729 639.8246,-337.0209"/>
<text text-anchor="middle" x="642.5" y="-411" font-family="Arial" font-size="10.00" fill="#ff0000">100.00%</text>
<text text-anchor="middle" x="642.5" y="-400" font-family="Arial" font-size="10.00" fill="#ff0000">4×</text>
</g>
<!-- 14 -->
<g id="node12" class="node">
<title>14</title>
<polygon fill="#ff0000" stroke="#ff0000" points="334.5,-327 221.5,-327 221.5,-275 334.5,-275 334.5,-327"/>
<text text-anchor="middle" x="278" y="-315" font-family="Arial" font-size="10.00" fill="#ffffff">parse_string_constant</text>
<text text-anchor="middle" x="278" y="-304" font-family="Arial" font-size="10.00" fill="#ffffff">100.00%</text>
<text text-anchor="middle" x="278" y="-293" font-family="Arial" font-size="10.00" fill="#ffffff">(100.00%)</text>
<text text-anchor="middle" x="278" y="-282" font-family="Arial" font-size="10.00" fill="#ffffff">4×</text>
</g>
<!-- 8&#45;&gt;14 -->
<g id="edge11" class="edge">
<title>8&#45;&gt;14</title>
<path fill="none" stroke="#ff0000" stroke-width="4" d="M367.4753,-445.6401C342.5285,-438.9146 311.7437,-428.9718 303,-419 283.4638,-396.72 277.8866,-363.0177 276.8056,-337.3278"/>
<polygon fill="#ff0000" stroke="#ff0000" stroke-width="4" points="280.3025,-337.1395 276.5901,-327.2163 273.304,-337.2887 280.3025,-337.1395"/>
<text text-anchor="middle" x="322.5" y="-411" font-family="Arial" font-size="10.00" fill="#ff0000">100.00%</text>
<text text-anchor="middle" x="322.5" y="-400" font-family="Arial" font-size="10.00" fill="#ff0000">4×</text>
</g>
<!-- 9&#45;&gt;4 -->
<g id="edge12" class="edge">
<title>9&#45;&gt;4</title>
<path fill="none" stroke="#ff0000" stroke-width="4" d="M117.5248,-213.7968C111.3313,-183.1279 105.2966,-131.5113 123,-92 128.7208,-79.2321 138.2676,-67.919 148.6346,-58.4239"/>
<polygon fill="#ff0000" stroke="#ff0000" stroke-width="4" points="150.9909,-61.0137 156.2853,-51.8365 146.4235,-55.709 150.9909,-61.0137"/>
<text text-anchor="middle" x="142.5" y="-121" font-family="Arial" font-size="10.00" fill="#ff0000">100.00%</text>
<text text-anchor="middle" x="142.5" y="-110" font-family="Arial" font-size="10.00" fill="#ff0000">6×</text>
</g>
<!-- 9&#45;&gt;7 -->
<g id="edge13" class="edge">
<title>9&#45;&gt;7</title>
<path fill="none" stroke="#ff0000" stroke-width="4" d="M126.1968,-213.5963C128.5034,-191.5557 132.8152,-162.2954 140,-153 140.1083,-152.8599 147.2724,-149.4823 157.1332,-144.8759"/>
<polygon fill="#ff0000" stroke="#ff0000" stroke-width="4" points="158.7998,-147.9606 166.3834,-140.562 155.8412,-141.6166 158.7998,-147.9606"/>
<text text-anchor="middle" x="159.5" y="-182" font-family="Arial" font-size="10.00" fill="#ff0000">100.00%</text>
<text text-anchor="middle" x="159.5" y="-171" font-family="Arial" font-size="10.00" fill="#ff0000">24×</text>
</g>
<!-- 10&#45;&gt;4 -->
<g id="edge14" class="edge">
<title>10&#45;&gt;4</title>
<path fill="none" stroke="#ff0000" stroke-width="4" d="M43.3343,-152.6612C47.3617,-134.2942 54.797,-109.9586 68,-92 87.0615,-66.0728 119.2824,-49.5773 146.7524,-39.5614"/>
<polygon fill="#ff0000" stroke="#ff0000" stroke-width="4" points="147.932,-42.8569 156.2414,-36.284 145.6467,-36.2405 147.932,-42.8569"/>
<text text-anchor="middle" x="87.5" y="-121" font-family="Arial" font-size="10.00" fill="#ff0000">100.00%</text>
<text text-anchor="middle" x="87.5" y="-110" font-family="Arial" font-size="10.00" fill="#ff0000">14×</text>
</g>
<!-- 10&#45;&gt;10 -->
<g id="edge15" class="edge">
<title>10&#45;&gt;10</title>
<path fill="none" stroke="#ff0000" stroke-width="4" d="M78.3598,-188.9207C83.5547,-187.2288 87,-183.9219 87,-179 87,-177.7695 86.7847,-176.64 86.3805,-175.6114"/>
<polygon fill="#ff0000" stroke="#ff0000" stroke-width="4" points="88.3239,-172.6803 78.3598,-169.0793 83.9036,-178.1081 88.3239,-172.6803"/>
<text text-anchor="middle" x="93" y="-176.5" font-family="Arial" font-size="10.00" fill="#ff0000">5×</text>
</g>
<!-- 12&#45;&gt;3 -->
<g id="edge21" class="edge">
<title>12&#45;&gt;3</title>
<path fill="none" stroke="#ff0000" stroke-width="4" d="M544.1206,-335.6081C550.6881,-316.3754 559.649,-289.6553 567,-266 574.138,-243.0301 568.9896,-234.2311 582,-214 600.7109,-184.9048 630.8573,-159.7867 655.1626,-142.5488"/>
<polygon fill="#ff0000" stroke="#ff0000" stroke-width="4" points="657.2571,-145.3557 663.4878,-136.7866 653.2733,-139.5999 657.2571,-145.3557"/>
<text text-anchor="middle" x="601.5" y="-243" font-family="Arial" font-size="10.00" fill="#ff0000">100.00%</text>
<text text-anchor="middle" x="601.5" y="-232" font-family="Arial" font-size="10.00" fill="#ff0000">20×</text>
</g>
<!-- 12&#45;&gt;6 -->
<g id="edge22" class="edge">
<title>12&#45;&gt;6</title>
<path fill="none" stroke="#ff0000" stroke-width="4" d="M533.4345,-335.6797C530.6021,-290.8489 524.1479,-200.6886 513.5018,-153.8683"/>
<polygon fill="#ff0000" stroke="#ff0000" stroke-width="4" points="516.8582,-152.8646 511.0141,-144.0273 510.0717,-154.5802 516.8582,-152.8646"/>
<text text-anchor="middle" x="547.5" y="-243" font-family="Arial" font-size="10.00" fill="#ff0000">100.00%</text>
<text text-anchor="middle" x="547.5" y="-232" font-family="Arial" font-size="10.00" fill="#ff0000">20×</text>
</g>
<!-- 11 -->
<g id="node13" class="node">
<title>11</title>
<polygon fill="#ff0000" stroke="#ff0000" points="500.5,-266 419.5,-266 419.5,-214 500.5,-214 500.5,-266"/>
<text text-anchor="middle" x="460" y="-254" font-family="Arial" font-size="10.00" fill="#ffffff">parse_attribute</text>
<text text-anchor="middle" x="460" y="-243" font-family="Arial" font-size="10.00" fill="#ffffff">100.00%</text>
<text text-anchor="middle" x="460" y="-232" font-family="Arial" font-size="10.00" fill="#ffffff">(100.00%)</text>
<text text-anchor="middle" x="460" y="-221" font-family="Arial" font-size="10.00" fill="#ffffff">14×</text>
</g>
<!-- 12&#45;&gt;11 -->
<g id="edge23" class="edge">
<title>12&#45;&gt;11</title>
<path fill="none" stroke="#ff0000" stroke-width="4" d="M498.8748,-340.1447C496.5489,-338.7413 494.2419,-337.3503 492,-336 485.3402,-331.9886 481.4645,-333.365 477,-327 466.6809,-312.2882 462.2385,-292.8973 460.4587,-276.1565"/>
<polygon fill="#ff0000" stroke="#ff0000" stroke-width="4" points="463.9442,-275.8335 459.6659,-266.1409 456.966,-276.3859 463.9442,-275.8335"/>
<text text-anchor="middle" x="496.5" y="-304" font-family="Arial" font-size="10.00" fill="#ff0000">100.00%</text>
<text text-anchor="middle" x="496.5" y="-293" font-family="Arial" font-size="10.00" fill="#ff0000">14×</text>
</g>
<!-- 13&#45;&gt;3 -->
<g id="edge24" class="edge">
<title>13&#45;&gt;3</title>
<path fill="none" stroke="#ff0000" stroke-width="4" d="M668.2044,-278.6395C672.0305,-274.8441 675.4579,-270.6174 678,-266 696.9812,-231.5229 699.0418,-185.6924 697.5959,-154.2162"/>
<polygon fill="#ff0000" stroke="#ff0000" stroke-width="4" points="701.0834,-153.9014 696.9905,-144.129 694.0959,-154.3208 701.0834,-153.9014"/>
<text text-anchor="middle" x="713.5" y="-243" font-family="Arial" font-size="10.00" fill="#ff0000">100.00%</text>
<text text-anchor="middle" x="713.5" y="-232" font-family="Arial" font-size="10.00" fill="#ff0000">4×</text>
</g>
<!-- 13&#45;&gt;6 -->
<g id="edge25" class="edge">
<title>13&#45;&gt;6</title>
<path fill="none" stroke="#ff0000" stroke-width="4" d="M633.3322,-274.9382C630.98,-241.4247 621.6163,-183.8752 586,-153 572.5224,-141.3165 554.6646,-133.2499 538.5593,-127.8328"/>
<polygon fill="#ff0000" stroke="#ff0000" stroke-width="4" points="539.4013,-124.4293 528.8127,-124.7937 537.3175,-131.1119 539.4013,-124.4293"/>
<text text-anchor="middle" x="651.5" y="-243" font-family="Arial" font-size="10.00" fill="#ff0000">100.00%</text>
<text text-anchor="middle" x="651.5" y="-232" font-family="Arial" font-size="10.00" fill="#ff0000">8×</text>
</g>
<!-- 13&#45;&gt;8 -->
<g id="edge26" class="edge">
<title>13&#45;&gt;8</title>
<path fill="none" stroke="#ff0000" stroke-width="4" d="M621.7791,-327.233C611.7756,-346.2707 596.0247,-371.4813 576,-388 538.4112,-419.0077 484.7194,-436.3873 446.945,-445.4342"/>
<polygon fill="#ff0000" stroke="#ff0000" stroke-width="4" points="445.7068,-442.127 436.7394,-447.7694 447.2682,-448.9507 445.7068,-442.127"/>
<text text-anchor="middle" x="569.5" y="-405.5" font-family="Arial" font-size="10.00" fill="#ff0000">10×</text>
</g>
<!-- 14&#45;&gt;4 -->
<g id="edge27" class="edge">
<title>14&#45;&gt;4</title>
<path fill="none" stroke="#ff0000" stroke-width="4" d="M279.1782,-274.6549C280.9614,-225.9068 282.7293,-123.7101 268,-92 262.2373,-79.5938 252.9766,-68.4122 243.0199,-58.9283"/>
<polygon fill="#ff0000" stroke="#ff0000" stroke-width="4" points="245.0968,-56.0894 235.3168,-52.0147 240.4212,-61.2989 245.0968,-56.0894"/>
<text text-anchor="middle" x="300.5" y="-182" font-family="Arial" font-size="10.00" fill="#ff0000">100.00%</text>
<text text-anchor="middle" x="300.5" y="-171" font-family="Arial" font-size="10.00" fill="#ff0000">3×</text>
</g>
<!-- 11&#45;&gt;3 -->
<g id="edge16" class="edge">
<title>11&#45;&gt;3</title>
<path fill="none" stroke="#ff0000" stroke-width="4" d="M500.5482,-219.5306C506.8447,-215.2682 512.9312,-210.4042 518,-205 535.8147,-186.0063 524.4487,-168.9928 545,-153 561.6286,-140.0598 614.8364,-129.7203 652.9207,-123.7254"/>
<polygon fill="#ff0000" stroke="#ff0000" stroke-width="4" points="653.8623,-127.1222 663.2185,-122.1512 652.8044,-120.2026 653.8623,-127.1222"/>
<text text-anchor="middle" x="564.5" y="-182" font-family="Arial" font-size="10.00" fill="#ff0000">100.00%</text>
<text text-anchor="middle" x="564.5" y="-171" font-family="Arial" font-size="10.00" fill="#ff0000">178×</text>
</g>
<!-- 11&#45;&gt;5 -->
<g id="edge17" class="edge">
<title>11&#45;&gt;5</title>
<path fill="none" stroke="#ff0000" stroke-width="4" d="M430.4401,-213.663C427.8074,-210.8435 425.2797,-207.9317 423,-205 406.7558,-184.1105 412.5297,-171.8917 394,-153 389.2342,-148.1411 383.6536,-143.7235 377.849,-139.7888"/>
<polygon fill="#ff0000" stroke="#ff0000" stroke-width="4" points="379.5801,-136.7427 369.2534,-134.3743 375.8492,-142.6656 379.5801,-136.7427"/>
<text text-anchor="middle" x="442.5" y="-182" font-family="Arial" font-size="10.00" fill="#ff0000">100.00%</text>
<text text-anchor="middle" x="442.5" y="-171" font-family="Arial" font-size="10.00" fill="#ff0000">154×</text>
</g>
<!-- 11&#45;&gt;6 -->
<g id="edge18" class="edge">
<title>11&#45;&gt;6</title>
<path fill="none" stroke="#ff0000" stroke-width="4" d="M462.7048,-213.8392C464.8318,-198.2111 468.4829,-177.938 477.3056,-153.7331"/>
<polygon fill="#ff0000" stroke="#ff0000" stroke-width="4" points="480.6239,-154.8552 480.9477,-144.2653 474.0906,-152.3419 480.6239,-154.8552"/>
<text text-anchor="middle" x="496.5" y="-182" font-family="Arial" font-size="10.00" fill="#ff0000">100.00%</text>
<text text-anchor="middle" x="496.5" y="-171" font-family="Arial" font-size="10.00" fill="#ff0000">42×</text>
</g>
<!-- 11&#45;&gt;7 -->
<g id="edge19" class="edge">
<title>11&#45;&gt;7</title>
<path fill="none" stroke="#ff0000" stroke-width="4" d="M419.3357,-233.4389C397.9413,-228.4152 372.2359,-219.7428 353,-205 331.0837,-188.2029 340.8448,-169.8901 319,-153 317.9072,-152.1551 296.4456,-144.8877 273.3014,-137.1926"/>
<polygon fill="#ff0000" stroke="#ff0000" stroke-width="4" points="274.2816,-133.8303 263.6881,-134.0033 272.0773,-140.4742 274.2816,-133.8303"/>
<text text-anchor="middle" x="372.5" y="-182" font-family="Arial" font-size="10.00" fill="#ff0000">100.00%</text>
<text text-anchor="middle" x="372.5" y="-171" font-family="Arial" font-size="10.00" fill="#ff0000">14×</text>
</g>
<!-- 11&#45;&gt;8 -->
<g id="edge20" class="edge">
<title>11&#45;&gt;8</title>
<path fill="none" stroke="#ff0000" stroke-width="4" d="M455.3248,-266.0454C452.0325,-283.4144 447.2826,-306.6993 442,-327 433.88,-358.2046 422.7336,-393.1077 414.2694,-418.4153"/>
<polygon fill="#ff0000" stroke="#ff0000" stroke-width="4" points="410.9313,-417.361 411.0538,-427.9552 417.5646,-419.597 410.9313,-417.361"/>
<text text-anchor="middle" x="458.5" y="-365" font-family="Arial" font-size="10.00" fill="#ff0000">100.00%</text>
<text text-anchor="middle" x="458.5" y="-354" font-family="Arial" font-size="10.00" fill="#ff0000">14×</text>
</g>
<!-- 15 -->
<g id="node14" class="node">
<title>15</title>
<polygon fill="#ff0000" stroke="#ff0000" points="849.5,-388 788.5,-388 788.5,-336 849.5,-336 849.5,-388"/>
<text text-anchor="middle" x="819" y="-376" font-family="Arial" font-size="10.00" fill="#ffffff">open_file</text>
<text text-anchor="middle" x="819" y="-365" font-family="Arial" font-size="10.00" fill="#ffffff">100.00%</text>
<text text-anchor="middle" x="819" y="-354" font-family="Arial" font-size="10.00" fill="#ffffff">(100.00%)</text>
<text text-anchor="middle" x="819" y="-343" font-family="Arial" font-size="10.00" fill="#ffffff">1×</text>
</g>
<!-- 16 -->
<g id="node15" class="node">
<title>16</title>
<polygon fill="#ff0000" stroke="#ff0000" points="849.5,-480 788.5,-480 788.5,-428 849.5,-428 849.5,-480"/>
<text text-anchor="middle" x="819" y="-468" font-family="Arial" font-size="10.00" fill="#ffffff">parse</text>
<text text-anchor="middle" x="819" y="-457" font-family="Arial" font-size="10.00" fill="#ffffff">100.00%</text>
<text text-anchor="middle" x="819" y="-446" font-family="Arial" font-size="10.00" fill="#ffffff">(100.00%)</text>
<text text-anchor="middle" x="819" y="-435" font-family="Arial" font-size="10.00" fill="#ffffff">1×</text>
</g>
<!-- 16&#45;&gt;3 -->
<g id="edge28" class="edge">
<title>16&#45;&gt;3</title>
<path fill="none" stroke="#ff0000" stroke-width="4" d="M849.8019,-432.322C853.5258,-428.3356 856.7885,-423.8737 859,-419 864.9096,-405.9766 862.9753,-365.9729 854,-336 827.4124,-247.2108 818.6152,-219.4477 754,-153 748.0177,-146.8481 740.7255,-141.412 733.3138,-136.7691"/>
<polygon fill="#ff0000" stroke="#ff0000" stroke-width="4" points="735.0282,-133.7171 724.6295,-131.6878 731.493,-139.7589 735.0282,-133.7171"/>
<text text-anchor="middle" x="870.5" y="-304" font-family="Arial" font-size="10.00" fill="#ff0000">100.00%</text>
<text text-anchor="middle" x="870.5" y="-293" font-family="Arial" font-size="10.00" fill="#ff0000">1×</text>
</g>
<!-- 16&#45;&gt;12 -->
<g id="edge29" class="edge">
<title>16&#45;&gt;12</title>
<path fill="none" stroke="#ff0000" stroke-width="4" d="M788.4127,-440.9018C758.9423,-428.5785 712.9258,-410.1103 672,-397 642.0451,-387.4041 607.7556,-378.646 580.9747,-372.291"/>
<polygon fill="#ff0000" stroke="#ff0000" stroke-width="4" points="581.6379,-368.8516 571.1029,-369.9762 580.0398,-375.6668 581.6379,-368.8516"/>
<text text-anchor="middle" x="752.5" y="-411" font-family="Arial" font-size="10.00" fill="#ff0000">100.00%</text>
<text text-anchor="middle" x="752.5" y="-400" font-family="Arial" font-size="10.00" fill="#ff0000">1×</text>
</g>
<!-- 16&#45;&gt;15 -->
<g id="edge30" class="edge">
<title>16&#45;&gt;15</title>
<path fill="none" stroke="#ff0000" stroke-width="4" d="M819,-427.8826C819,-418.6565 819,-408.1091 819,-398.1983"/>
<polygon fill="#ff0000" stroke="#ff0000" stroke-width="4" points="822.5001,-398.1827 819,-388.1827 815.5001,-398.1828 822.5001,-398.1827"/>
<text text-anchor="middle" x="838.5" y="-411" font-family="Arial" font-size="10.00" fill="#ff0000">100.00%</text>
<text text-anchor="middle" x="838.5" y="-400" font-family="Arial" font-size="10.00" fill="#ff0000">1×</text>
</g>
</g>
</svg>
